<?xml version="1.0" encoding="UTF-8"?>
<!DOCTYPE svg PUBLIC "-//W3C//DTD SVG 1.1//EN" "http://www.w3.org/Graphics/SVG/1.1/DTD/svg11.dtd">
<svg version="1.1" xmlns="http://www.w3.org/2000/svg" xmlns:xlink="http://www.w3.org/1999/xlink" x="0" y="0" width="360" height="310" viewBox="0, 0, 360, 310">
  <g id="Layer_1">
    <g>
      <g>
        <path d="M359.36,72.017 L287.616,144.033 L287.616,72.017 z" fill="#4F56D4"/>
        <path d="M287.616,144.033 L215.872,72.017 L287.616,72.017 z" fill="#666CEA"/>
        <path d="M287.616,72.017 L215.872,0 L215.872,72.017 z" fill="#4F56D4"/>
        <path d="M215.872,0 L144.128,72.017 L215.872,72.017 z" fill="#666CEA"/>
        <path d="M215.872,72.017 L144.128,144.033 L144.128,72.017 z" fill="#4F56D4"/>
        <path d="M144.128,144.033 L72.384,72.017 L144.128,72.017 z" fill="#666CEA"/>
        <path d="M72.384,-0 L144.128,72.017 L72.384,72.017 z" fill="#D44F4F"/>
        <path d="M72.384,-0 L0.64,72.017 L72.384,72.017 z" fill="#DF6565"/>
      </g>
      <g>
        <path d="M0.024,251.202 L2.673,251.202 L2.673,220.063 L17.095,220.063 C30.143,220.063 37.207,212.893 37.207,200.373 C37.207,188.067 31.811,180.791 15.721,180.791 L0.024,180.791 z M2.673,217.709 L2.673,183.359 L15.623,183.359 C30.045,183.359 34.46,189.459 34.46,200.48 C34.46,211.502 28.868,217.709 16.702,217.709 z" fill="#D44F4F"/>
        <path d="M66.54,251.202 L69.189,251.202 L69.189,221.133 L91.263,180.791 L88.614,180.791 L68.012,218.565 L67.914,218.565 L47.115,180.791 L44.368,180.791 L66.54,221.133 z" fill="#D44F4F"/>
        <path d="M116.771,252.059 C131.192,252.059 137.373,244.782 137.373,233.332 C137.373,221.775 130.8,217.816 120.891,214.07 L116.869,212.786 C106.175,208.613 102.545,205.082 102.545,196.2 C102.545,188.281 107.647,182.503 118.438,182.503 C125.404,182.503 130.8,184.322 134.037,186.462 L134.037,183.894 C130.702,181.861 125.6,180.042 118.537,180.042 C106.077,180.042 99.994,187.211 99.994,196.414 C99.994,206.473 104.704,211.074 115.986,215.248 L120.106,216.746 C128.936,219.849 134.724,223.487 134.724,233.546 C134.724,243.605 129.328,249.597 116.673,249.597 C109.805,249.597 103.232,247.564 98.621,244.675 L98.621,247.136 C102.545,249.704 109.216,252.059 116.771,252.059 z" fill="#4F56D4"/>
        <path d="M169.257,251.202 L171.71,251.202 L171.71,183.359 L194.373,183.359 L194.373,180.791 L146.693,180.791 L146.693,183.359 L169.257,183.359 z" fill="#4F56D4"/>
        <path d="M200.553,251.202 L203.006,251.202 L211.541,226.911 L241.071,226.911 L249.508,251.202 L252.157,251.202 L227.631,180.791 L225.08,180.791 z M226.257,184.643 L226.453,184.643 L240.188,224.343 L212.326,224.343 z" fill="#4F56D4"/>
        <path d="M287.083,252.059 C296.305,252.059 301.112,249.276 304.349,247.35 L304.349,244.782 C300.523,247.136 295.912,249.597 287.279,249.597 C270.601,249.597 263.145,238.254 263.145,216.746 L263.145,214.927 C263.145,193.311 272.367,182.503 288.358,182.503 C295.422,182.503 300.033,184.108 303.957,186.355 L303.957,183.894 C300.327,181.647 295.912,180.042 288.358,180.042 C270.797,180.042 260.594,192.134 260.594,215.248 L260.594,216.639 C260.594,239.539 269.227,252.059 287.083,252.059 z" fill="#4F56D4"/>
        <path d="M356.444,251.202 L359.976,251.202 L327.208,215.676 L359.093,180.791 L355.757,180.791 L323.971,215.783 z M320.439,251.202 L322.99,251.202 L322.99,180.791 L320.439,180.791 z" fill="#4F56D4"/>
      </g>
      <g>
        <path d="M0,303.488 L1.046,303.488 L4.687,293.952 L17.284,293.952 L20.884,303.488 L22.013,303.488 L11.551,275.846 L10.463,275.846 z M10.965,277.358 L11.049,277.358 L16.908,292.944 L5.022,292.944 z" fill="#DF6565"/>
        <path d="M38.084,303.488 L39.214,303.488 L39.214,291.264 L45.366,291.264 C50.932,291.264 53.946,288.449 53.946,283.534 C53.946,278.703 51.644,275.846 44.78,275.846 L38.084,275.846 z M39.214,290.339 L39.214,276.854 L44.738,276.854 C50.891,276.854 52.774,279.249 52.774,283.576 C52.774,287.903 50.388,290.339 45.199,290.339 z" fill="#DF6565"/>
        <path d="M59.847,310 C62.734,310 63.781,308.32 64.701,305.799 L73.699,283.618 L72.611,283.618 L65.831,300.296 L65.748,300.296 L58.382,283.618 L57.294,283.618 L65.245,301.682 L63.739,305.631 C62.902,307.773 62.065,309.076 59.721,309.076 C58.968,309.076 58.214,308.95 57.628,308.782 L57.628,309.58 C58.173,309.79 58.968,310 59.847,310 z" fill="#DF6565"/>
        <path d="M83.701,303.74 C84.999,303.74 86.129,303.362 86.715,303.152 L86.715,302.312 C85.92,302.564 84.873,302.774 83.911,302.774 C81.274,302.774 80.521,301.85 80.521,299.624 L80.521,284.458 L86.296,284.458 L86.296,283.492 L80.521,283.492 L80.521,278.745 L79.475,278.745 L79.475,283.492 L76.461,283.492 L76.461,284.458 L79.475,284.458 L79.475,299.792 C79.475,302.396 80.814,303.74 83.701,303.74 z" fill="#DF6565"/>
        <path d="M91.779,303.446 L92.825,303.446 L92.825,286.348 C95.252,284.836 97.847,284.08 100.274,284.08 C103.79,284.08 105.38,285.256 105.38,288.575 L105.38,303.446 L106.426,303.446 L106.426,288.365 C106.426,284.626 104.334,283.156 100.651,283.156 C98.14,283.156 95.336,283.912 92.867,285.424 L92.825,285.424 L92.825,274.04 L91.779,274.04 z" fill="#DF6565"/>
        <path d="M120.405,303.867 C125.301,303.867 129.11,300.422 129.11,293.658 L129.11,293.28 C129.11,286.517 125.51,283.24 120.405,283.24 C115.55,283.24 111.741,286.643 111.741,293.364 L111.741,293.826 C111.741,300.59 115.299,303.867 120.405,303.867 z M120.405,302.984 C115.927,302.984 112.746,300.128 112.746,293.91 L112.746,293.322 C112.746,287.273 115.968,284.122 120.405,284.122 C124.883,284.122 128.105,286.769 128.105,293.196 L128.105,293.742 C128.105,299.918 124.883,302.984 120.405,302.984 z" fill="#DF6565"/>
        <path d="M134.55,303.572 L135.596,303.572 L135.596,286.475 C138.024,284.92 140.618,284.164 143.046,284.164 C146.561,284.164 148.152,285.34 148.152,288.659 L148.152,303.572 L149.198,303.572 L149.198,288.491 C149.198,284.71 147.105,283.24 143.422,283.24 C140.911,283.24 138.107,283.996 135.638,285.508 L135.555,285.508 L135.555,283.534 L134.55,283.534 z" fill="#DF6565"/>
        <path d="M166.984,303.572 L168.031,303.572 L168.031,286.475 C170.458,284.878 172.676,284.164 174.936,284.164 C177.866,284.164 179.414,285.34 179.414,288.659 L179.414,303.572 L180.502,303.572 L180.502,288.491 C180.502,287.651 180.377,287.021 180.209,286.432 C182.888,284.794 185.189,284.164 187.198,284.164 C190.17,284.164 191.969,285.34 191.969,288.659 L191.969,303.572 L192.974,303.572 L192.974,288.491 C192.974,284.71 190.756,283.24 187.491,283.24 C185.315,283.24 182.888,283.828 180.042,285.634 L179.958,285.634 C179.121,284.038 177.489,283.24 175.145,283.24 C172.927,283.24 170.542,283.996 168.073,285.508 L167.989,285.508 L167.989,283.534 L166.984,283.534 z" fill="#DF6565"/>
        <path d="M199.586,303.488 L200.632,303.488 L200.632,283.492 L199.586,283.492 z M199.544,278.871 L200.632,278.871 L200.632,277.316 L199.544,277.316 z" fill="#DF6565"/>
        <path d="M214.527,303.867 C217.624,303.867 219.172,303.11 220.428,302.27 L220.428,301.304 C219.256,302.06 217.582,302.942 214.652,302.942 C209.212,302.942 206.868,299.371 206.868,293.742 L206.868,293.196 C206.868,286.769 210.258,284.164 214.485,284.164 C217.08,284.164 218.545,284.626 220.177,285.466 L220.177,284.584 C218.712,283.66 217.08,283.24 214.569,283.24 C209.63,283.24 205.864,286.306 205.864,293.322 L205.864,293.784 C205.864,299.876 208.626,303.867 214.527,303.867 z" fill="#DF6565"/>
        <path d="M225.659,303.572 L226.747,303.572 L226.747,287.105 C228.17,285.508 230.43,284.248 232.983,284.248 C233.36,284.248 233.82,284.332 234.155,284.416 L234.155,283.45 C233.904,283.366 233.443,283.324 233.025,283.324 C230.305,283.324 228.045,284.752 226.789,286.096 L226.705,286.096 L226.705,283.534 L225.659,283.534 z" fill="#DF6565"/>
        <path d="M246.417,303.867 C251.314,303.867 255.122,300.422 255.122,293.658 L255.122,293.28 C255.122,286.517 251.523,283.24 246.417,283.24 C241.562,283.24 237.754,286.643 237.754,293.364 L237.754,293.826 C237.754,300.59 241.311,303.867 246.417,303.867 z M246.417,302.984 C241.939,302.984 238.758,300.128 238.758,293.91 L238.758,293.322 C238.758,287.273 241.981,284.122 246.417,284.122 C250.895,284.122 254.118,286.769 254.118,293.196 L254.118,293.742 C254.118,299.918 250.895,302.984 246.417,302.984 z" fill="#DF6565"/>
        <path d="M259.809,290.549 L273.327,290.549 L273.327,289.625 L259.809,289.625 z" fill="#DF6565"/>
        <path d="M283.999,303.867 C288.77,303.867 290.57,301.472 290.57,298.531 C290.57,295.171 288.854,294.036 285.506,293.028 L283.078,292.314 C280.233,291.432 279.228,290.423 279.228,287.987 C279.228,285.676 280.902,284.164 284.334,284.164 C286.259,284.164 288.184,284.668 289.565,285.34 L289.565,284.458 C288.477,283.828 286.761,283.24 284.25,283.24 C280.274,283.24 278.224,285.172 278.224,288.029 C278.224,291.054 279.647,292.356 282.702,293.196 L285.129,293.952 C288.268,294.834 289.523,295.801 289.523,298.573 C289.523,301.01 288.142,302.942 283.915,302.942 C281.111,302.942 279.396,302.27 277.847,301.514 L277.847,302.438 C279.186,303.152 281.237,303.867 283.999,303.867 z" fill="#DF6565"/>
        <path d="M301.451,303.74 C302.748,303.74 303.878,303.362 304.464,303.152 L304.464,302.312 C303.669,302.564 302.623,302.774 301.66,302.774 C299.024,302.774 298.27,301.85 298.27,299.624 L298.27,284.458 L304.046,284.458 L304.046,283.492 L298.27,283.492 L298.27,278.745 L297.224,278.745 L297.224,283.492 L294.211,283.492 L294.211,284.458 L297.224,284.458 L297.224,299.792 C297.224,302.396 298.563,303.74 301.451,303.74 z" fill="#DF6565"/>
        <path d="M314.215,303.867 C317.354,303.867 319.447,302.648 320.367,301.766 L320.409,301.766 L320.493,303.572 L321.497,303.572 L321.497,288.827 C321.497,284.836 319.237,283.24 315.387,283.24 C313.336,283.24 311.495,283.576 309.821,284.248 L309.821,285.088 C311.369,284.584 313.127,284.164 315.052,284.164 C318.651,284.164 320.367,285.424 320.367,289.037 L320.367,292.188 L314.048,292.86 C309.988,293.322 308.021,295.171 308.021,298.573 C308.021,301.85 310.491,303.867 314.215,303.867 z M314.383,303.026 C311.076,303.026 309.109,301.262 309.109,298.489 C309.109,295.591 310.7,294.078 314.299,293.742 L320.367,293.028 L320.367,300.884 C319.196,301.976 317.187,303.026 314.383,303.026 z" fill="#DF6565"/>
        <path d="M335.392,303.867 C338.489,303.867 340.037,303.11 341.293,302.27 L341.293,301.304 C340.121,302.06 338.447,302.942 335.517,302.942 C330.077,302.942 327.733,299.371 327.733,293.742 L327.733,293.196 C327.733,286.769 331.123,284.164 335.35,284.164 C337.945,284.164 339.409,284.626 341.042,285.466 L341.042,284.584 C339.577,283.66 337.945,283.24 335.434,283.24 C330.495,283.24 326.729,286.306 326.729,293.322 L326.729,293.784 C326.729,299.876 329.491,303.867 335.392,303.867 z" fill="#DF6565"/>
        <path d="M346.817,303.446 L347.905,303.446 L347.905,274.04 L346.817,274.04 z M358.619,303.446 L360,303.446 L349.621,293.028 L359.414,283.45 L358.117,283.45 L348.407,293.07 z" fill="#DF6565"/>
      </g>
    </g>
  </g>
</svg>
