<?xml version="1.0" standalone="no"?>
<!DOCTYPE svg PUBLIC "-//W3C//DTD SVG 20010904//EN"
 "http://www.w3.org/TR/2001/REC-SVG-20010904/DTD/svg10.dtd">
<svg version="1.0" xmlns="http://www.w3.org/2000/svg"
 width="400.000000pt" height="400.000000pt" viewBox="0 0 400.000000 400.000000"
 preserveAspectRatio="xMidYMid meet">
<metadata>
Created by potrace 1.11, written by Peter Selinger 2001-2013
</metadata>
<g transform="translate(0.000000,400.000000) scale(0.100000,-0.100000)"
fill="#000000" stroke="none">
<path d="M565 2360 l-360 -360 363 2 c199 2 363 -1 365 -5 1 -4 161 -167 356
-362 l353 -354 358 359 357 360 359 -360 359 -360 360 360 360 360 -360 0
-360 0 -353 355 c-195 195 -358 355 -364 355 -6 0 -169 -160 -363 -355 l-353
-355 -358 360 -359 360 -360 -360z"/>
</g>
</svg>
